<svg width="319" height="319" viewBox="0 0 319 319" fill="none" xmlns="http://www.w3.org/2000/svg">
<path d="M159.958 319L40.0659 198.827L159.959 273.58L270.327 203.029L159.958 319Z" fill="#D9D9D9"/>
<path d="M159.958 319L40.0659 198.827L159.959 273.58L270.327 203.029L159.958 319Z" fill="#01D0C4"/>
<path d="M159.541 0.499995L46.7891 185.381L159.541 254.292L265.285 186.222L159.541 0.499995Z" fill="#D9D9D9"/>
<path d="M159.541 0.499995L46.7891 185.381L159.541 254.292L265.285 186.222L159.541 0.499995Z" fill="#01D0C4"/>
<path d="M159.958 319L159.959 295.47L159.959 273.58L270.327 203.029L159.958 319Z" fill="black" fill-opacity="0.13"/>
<path d="M159.541 0.499995V170.255L159.541 254.292L265.285 186.222L159.541 0.499995Z" fill="black" fill-opacity="0.13"/>
</svg>
