<svg width="1031" height="203" viewBox="0 0 1031 203" fill="none" xmlns="http://www.w3.org/2000/svg">
<path d="M207.457 151.893V41.558H272.476V57.9506H223.85V84.5886H264.91V100.981H223.85V151.893H207.457ZM276.958 151.893V73.0822H293.351V81.4361C296.083 78.1786 299.446 75.6042 303.439 73.7127C307.432 71.8213 311.74 70.8755 316.364 70.8755C319.306 70.8755 322.222 71.2696 325.112 72.0577L318.57 88.6079C316.521 87.8198 314.472 87.4257 312.423 87.4257C308.955 87.4257 305.777 88.2927 302.887 90.0265C299.997 91.7078 297.685 93.9933 295.952 96.883C294.218 99.7727 293.351 102.978 293.351 106.498V151.893H276.958ZM388.687 73.0822H405.08V151.893H388.608L387.978 140.465C385.666 144.511 382.54 147.768 378.599 150.238C374.659 152.707 370.009 153.942 364.65 153.942C358.87 153.942 353.432 152.865 348.336 150.711C343.24 148.504 338.747 145.457 334.859 141.569C331.024 137.681 328.029 133.215 325.875 128.171C323.721 123.074 322.644 117.61 322.644 111.778C322.644 106.156 323.695 100.876 325.796 95.9373C327.898 90.9459 330.814 86.5851 334.544 82.8547C338.275 79.1244 342.583 76.2084 347.469 74.1068C352.408 71.9526 357.688 70.8755 363.31 70.8755C369.037 70.8755 374.081 72.189 378.442 74.8161C382.855 77.3905 386.507 80.7006 389.396 84.7462L388.687 73.0822ZM364.256 138.101C368.879 138.101 372.925 136.971 376.393 134.712C379.86 132.4 382.54 129.3 384.431 125.412C386.375 121.524 387.347 117.216 387.347 112.487C387.347 107.706 386.375 103.372 384.431 99.4838C382.487 95.5958 379.781 92.5222 376.314 90.2629C372.899 87.9511 368.879 86.7953 364.256 86.7953C359.685 86.7953 355.508 87.9511 351.725 90.2629C347.942 92.5747 344.947 95.6746 342.74 99.5626C340.534 103.451 339.43 107.759 339.43 112.487C339.43 117.269 340.56 121.603 342.819 125.491C345.131 129.327 348.152 132.4 351.883 134.712C355.665 136.971 359.79 138.101 364.256 138.101ZM476.089 73.0822H492.482V153.942C492.482 159.353 491.326 164.345 489.014 168.916C486.755 173.487 483.681 177.427 479.793 180.737C475.905 184.1 471.439 186.701 466.395 188.54C461.404 190.379 456.176 191.298 450.712 191.298C445.195 191.298 439.889 190.116 434.792 187.752C429.696 185.44 425.204 182.287 421.316 178.294C417.48 174.301 414.617 169.783 412.725 164.739L427.778 157.961C428.829 161.219 430.51 164.108 432.822 166.63C435.186 169.152 437.919 171.149 441.018 172.62C444.171 174.091 447.402 174.827 450.712 174.827C453.97 174.827 457.096 174.301 460.091 173.25C463.138 172.252 465.844 170.834 468.208 168.995C470.625 167.156 472.543 164.949 473.961 162.375C475.38 159.8 476.089 156.989 476.089 153.942V140.623C473.515 144.616 470.205 147.847 466.159 150.317C462.113 152.733 457.411 153.942 452.052 153.942C446.483 153.942 441.229 152.865 436.29 150.711C431.351 148.556 427.016 145.588 423.286 141.805C419.556 137.97 416.64 133.556 414.538 128.565C412.436 123.574 411.386 118.214 411.386 112.487C411.386 106.761 412.436 101.401 414.538 96.4101C416.64 91.3663 419.556 86.9529 423.286 83.17C427.016 79.3345 431.351 76.3397 436.29 74.1856C441.229 72.0314 446.483 70.9543 452.052 70.9543C457.411 70.9543 462.113 72.189 466.159 74.6584C470.205 77.0753 473.515 80.3065 476.089 84.3521V73.0822ZM452.21 138.101C456.781 138.101 460.774 136.945 464.189 134.633C467.604 132.269 470.257 129.143 472.149 125.255C474.04 121.367 474.986 117.111 474.986 112.487C474.986 107.759 474.014 103.477 472.07 99.6414C470.178 95.7534 467.525 92.6535 464.11 90.3417C460.695 87.9774 456.728 86.7953 452.21 86.7953C447.796 86.7953 443.751 87.9511 440.073 90.2629C436.447 92.5747 433.558 95.6746 431.404 99.5626C429.249 103.451 428.172 107.759 428.172 112.487C428.172 117.216 429.249 121.524 431.404 125.412C433.61 129.3 436.526 132.4 440.152 134.712C443.829 136.971 447.849 138.101 452.21 138.101ZM508.243 151.893V73.0822H524.635V81.4361C527.367 78.1786 530.704 75.6042 534.644 73.7127C538.637 71.8213 542.946 70.8755 547.569 70.8755C553.191 70.8755 558.366 72.2416 563.095 74.9737C567.823 77.6532 571.58 81.226 574.365 85.6919C577.149 81.226 580.853 77.6532 585.477 74.9737C590.153 72.2416 595.302 70.8755 600.924 70.8755C606.756 70.8755 612.062 72.2941 616.844 75.1313C621.625 77.9685 625.434 81.7776 628.271 86.5588C631.108 91.34 632.527 96.6466 632.527 102.479V151.893H616.134V106.656C616.134 103.188 615.294 100.009 613.612 97.1194C611.931 94.2297 609.672 91.8917 606.835 90.1053C603.997 88.3189 600.845 87.4257 597.377 87.4257C593.91 87.4257 590.757 88.2664 587.92 89.9477C585.083 91.629 582.824 93.9145 581.142 96.8042C579.461 99.6939 578.62 102.978 578.62 106.656V151.893H562.228V106.656C562.228 102.978 561.387 99.6939 559.706 96.8042C558.025 93.9145 555.739 91.629 552.849 89.9477C550.012 88.2664 546.86 87.4257 543.392 87.4257C539.977 87.4257 536.825 88.3189 533.935 90.1053C531.098 91.8917 528.838 94.2297 527.157 97.1194C525.476 100.009 524.635 103.188 524.635 106.656V151.893H508.243ZM678.301 153.942C671.05 153.942 664.43 152.077 658.441 148.346C652.504 144.616 647.749 139.625 644.176 133.372C640.656 127.067 638.896 120.106 638.896 112.487C638.896 106.708 639.92 101.323 641.969 96.3313C644.018 91.2875 646.829 86.8741 650.402 83.0912C654.027 79.2557 658.231 76.2609 663.012 74.1068C667.793 71.9526 672.889 70.8755 678.301 70.8755C684.343 70.8755 689.886 72.1365 694.93 74.6584C699.974 77.1278 704.282 80.5692 707.855 84.9826C711.428 89.3435 714.055 94.3873 715.736 100.114C717.417 105.789 717.916 111.831 717.233 118.241H656.47C657.153 121.866 658.467 125.15 660.411 128.092C662.408 130.982 664.929 133.267 667.977 134.948C671.077 136.63 674.518 137.497 678.301 137.549C682.294 137.549 685.919 136.551 689.177 134.554C692.487 132.558 695.193 129.8 697.294 126.279L713.923 130.141C710.771 137.129 706.016 142.856 699.659 147.322C693.301 151.735 686.182 153.942 678.301 153.942ZM655.919 105.71H700.683C700.158 101.927 698.818 98.5118 696.664 95.4644C694.562 92.3645 691.909 89.9214 688.704 88.135C685.552 86.2961 682.084 85.3767 678.301 85.3767C674.571 85.3767 671.103 86.2698 667.898 88.0562C664.746 89.8426 662.119 92.2857 660.017 95.3856C657.968 98.4329 656.602 101.874 655.919 105.71ZM798.062 102.479V151.893H781.67V106.498C781.67 102.978 780.803 99.7727 779.069 96.883C777.388 93.9933 775.102 91.7078 772.212 90.0265C769.375 88.2927 766.17 87.4257 762.597 87.4257C759.13 87.4257 755.951 88.2927 753.061 90.0265C750.172 91.7078 747.86 93.9933 746.126 96.883C744.392 99.7727 743.525 102.978 743.525 106.498V151.893H727.133V73.0822H743.525V81.4361C746.257 78.1786 749.62 75.6042 753.613 73.7127C757.606 71.8213 761.914 70.8755 766.538 70.8755C772.37 70.8755 777.677 72.2941 782.458 75.1313C787.239 77.9685 791.022 81.7776 793.806 86.5588C796.644 91.34 798.062 96.6466 798.062 102.479ZM852.253 89.4748H835.703L835.624 151.893H819.231L819.31 89.4748H806.779V73.0822H819.31L819.231 48.3357H835.624L835.703 73.0822H852.253V89.4748ZM941.585 153.942C932.758 153.942 925.061 151.788 918.493 147.479C911.978 143.171 906.908 137.392 903.283 130.141C899.71 122.838 897.924 114.747 897.924 105.867V41.558H914.316V105.867C914.316 111.647 915.367 116.953 917.469 121.787C919.623 126.568 922.723 130.404 926.768 133.293C930.867 136.131 935.805 137.549 941.585 137.549C947.522 137.549 952.513 136.131 956.559 133.293C960.604 130.404 963.652 126.568 965.701 121.787C967.802 116.953 968.853 111.647 968.853 105.867V41.558H985.246V105.867C985.246 112.54 984.221 118.792 982.172 124.624C980.123 130.404 977.181 135.5 973.345 139.914C969.51 144.327 964.913 147.768 959.554 150.238C954.194 152.707 948.205 153.942 941.585 153.942ZM1001.96 151.893V41.558H1018.35V151.893H1001.96Z" fill="black"/>
<path d="M72.874 189.5L1.54077 118L72.874 162.476L138.541 120.5L72.874 189.5Z" fill="#D9D9D9"/>
<path d="M72.874 189.5L1.54077 118L72.874 162.476L138.541 120.5L72.874 189.5Z" fill="#00E3BA"/>
<path d="M72.6259 -2.85377e-05L5.54089 110L72.6258 151L135.541 110.5L72.6259 -2.85377e-05Z" fill="#D9D9D9"/>
<path d="M72.6259 -2.85377e-05L5.54089 110L72.6258 151L135.541 110.5L72.6259 -2.85377e-05Z" fill="#00E3BA"/>
<path d="M72.874 189.5L72.874 175.5V162.476L138.541 120.5L72.874 189.5Z" fill="black" fill-opacity="0.13"/>
<path d="M72.6259 -2.85377e-05L72.6258 101V151L135.541 110.5L72.6259 -2.85377e-05Z" fill="black" fill-opacity="0.13"/>
</svg>
